#N canvas 615 22 752 791 10;
#X obj -110 -62 cnv 15 700 30 empty empty LISSAJOUS_CURVES 20 15 0
14 -1 -262144 0;
#X obj -110 -28 cnv 15 150 30 empty empty CC_BY-NC-SA 20 15 0 14 -260097
-262144 0;
#X obj 45 -28 cnv 15 150 30 empty empty COREY_KERELIUK 20 15 0 14 -257985
-1 0;
#X obj -109 12 cnv 15 250 110 empty empty create_gemwin: 20 12 0 11
-233017 -66577 0;
#X obj -88 73 gemwin;
#X msg -41 73 0 \, destroy;
#X obj -108 130 cnv 15 450 400 empty empty plot_curves: 20 12 0 11
-233017 -66577 0;
#X obj -8 257 GEMglBegin;
#X floatatom 60 228 5 0 0 0 - - -;
#X obj -86 154 gemhead;
#X obj -86 496 GEMglEnd;
#X msg 49 165 GL_LINE_STRIP;
#X msg 146 164 GL_LINE_LOOP;
#X obj -86 228 t a a a;
#X obj -67 329 t a b;
#X obj -18 329 f 0;
#X obj 9 329 + 1;
#X msg 235 163 GL_POINTS;
#X obj -86 197 GEMglLineWidth 1;
#X obj 49 206 GLdefine GL_POINTS;
#X obj -18 444 * 2;
#X obj 32 443 * 2;
#X obj 49 146 loadbang;
#X obj 350 131 cnv 15 250 400 empty empty motion_blur: 20 12 0 11 -233017
-66577 0;
#X obj 370 272 pix_snap2tex;
#X obj 370 301 alpha;
#X obj 370 361 square 4;
#X obj 372 202 t b a;
#X msg 417 242 0 0;
#X obj 372 164 gemhead -1;
#X floatatom 483 304 10 0 0 0 - - -;
#X obj 370 331 colorRGB 1 1 1 0.1;
#X obj 454 205 loadbang;
#X msg 484 281 0.9;
#X obj -107 539 cnv 15 450 750 empty empty empty 20 12 0 11 -228856
-66577 0;
#X obj 350 539 cnv 15 250 600 empty empty save_audio_in_table: 20 12
0 11 -233017 -66577 0;
#X obj 376 644 r~ osc1;
#X obj 480 644 r~ osc2;
#X obj 480 672 tabwrite~ tab2;
#X obj 376 672 tabwrite~ tab1;
#X msg 31 73 bang;
#X msg 534 93 \; pd dsp 1;
#X msg -88 44 dimen 640 360 \, FSAA 8 \, create \, 1;
#X msg 447 240 640 360;
#X obj -38 174 s gh;
#X obj 440 603 r gh;
#X obj -38 153 t b;
#X obj -67 464 GEMglVertex2f;
#X obj 36 329 % 1024;
#X obj -67 298 repeat 1024;
#N canvas 0 22 450 300 (subpatch) 0;
#X array tab1 1024 float 2;
#X coords 0 -1 1023 1 200 140 1;
#X restore 372 762 graph;
#N canvas 0 22 450 300 (subpatch) 0;
#X array tab2 1024 float 2;
#X coords 0 1 1023 -1 200 140 1;
#X restore 372 938 graph;
#X obj -18 418 tabread tab1;
#X obj 65 418 tabread tab2;
#X obj 534 71 loadbang;
#X text 122 44 <------------- click to open graphics window;
#N canvas 596 45 849 689 shrooms 0;
#X obj 100 101 cnv 15 100 200 empty empty empty 20 12 0 14 -204786
-66577 0;
#X obj 201 100 cnv 15 100 200 empty empty empty 20 12 0 14 -232576
-66577 0;
#X obj 302 101 cnv 15 100 200 empty empty empty 20 12 0 14 -159808
-66577 0;
#X obj 402 101 cnv 15 100 200 empty empty empty 20 12 0 14 -4034 -66577
0;
#X obj 259 56 outlet~;
#X obj 312 55 outlet~;
#X obj 7 -537 cnv 15 300 200 empty empty empty 20 12 0 14 -204786 -66577
0;
#X obj 349 -537 cnv 15 300 200 empty empty empty 20 12 0 14 -232576
-66577 0;
#X obj 7 -272 cnv 15 300 200 empty empty empty 20 12 0 14 -4034 -66577
0;
#X obj 223 -641 phasor~;
#X floatatom 223 -668 5 0 0 0 - - -;
#X text 206 -689 base frequency;
#X obj 223 -181 sin~;
#X obj 259 -181 cos~;
#X obj 277 25 +~;
#X obj 313 24 +~;
#X obj 421 160 vsl 15 128 0 1 0 0 empty empty empty 0 -9 0 10 -262144
-1 -1 7110 1;
#X text 410 109 circles;
#X obj 223 -115 *~;
#X obj 259 -116 *~;
#X obj 129 -157 line~;
#X msg 129 -180 \$1 10;
#X obj 459 160 vsl 15 128 0 1 0 0 empty empty empty 0 -9 0 10 -262144
-1 -1 10000 1;
#X obj 479 160 vsl 15 128 0 1 0 0 empty empty empty 0 -9 0 10 -262144
-1 -1 6875 1;
#X obj 129 -203 *;
#X obj 173 -157 line~;
#X msg 173 -180 \$1 10;
#X obj 173 -203 *;
#X floatatom 130 -109 5 0 0 0 - - -;
#X obj 143 -254 bng 15 250 50 0 empty empty empty 17 7 0 10 -262144
-1 -1;
#X text 409 140 volume;
#X text 461 141 L;
#X text 481 141 R;
#X obj 96 -623 bng 15 250 50 0 empty empty empty 17 7 0 10 -262144
-1 -1;
#X msg 65 -300 1;
#X obj 223 -205 *~;
#X floatatom 247 -243 5 1 500 0 - - -;
#X text 243 -260 spiral;
#X obj 102 -416 expr~ $v1*2-1;
#X obj 102 -393 *~;
#X obj 349 -272 cnv 15 300 200 empty empty empty 20 12 0 14 -159808
-66577 0;
#X obj 122 160 vsl 15 128 0 1 0 0 empty empty empty 0 -9 0 10 -262144
-1 -1 10625 1;
#X obj 278 -21 *~;
#X obj 312 -21 *~;
#X obj 363 -140 *~;
#X msg 131 -300 100;
#X text 86 -639 reset;
#X obj 371 160 vsl 15 128 0 1 0 0 empty empty empty 0 -9 0 10 -262144
-1 -1 9100 1;
#X obj 414 -165 clip~ 0.07 1;
#X msg 615 -296 1;
#X obj 86 -668 loadbang;
#X msg 27 -300 0.3;
#X obj 201 -379 expr 1-$f1;
#X text 118 128 view;
#X msg 201 -563 0.75;
#X obj 414 -394 cos~;
#X obj 414 -417 phasor~;
#X obj 218 161 vsl 15 128 -1 1 0 0 empty empty empty 0 -9 0 10 -262144
-1 -1 8000 1;
#X floatatom 540 -521 5 1 5 0 - - -;
#X obj 267 161 vsl 15 128 0 1 0 0 empty empty empty 0 -9 0 10 -262144
-1 -1 10600 1;
#X obj 365 -371 expr~ $v1*$v2*$f3;
#X obj 397 -501 t b f;
#X text 255 140 spread;
#X text 209 140 speed;
#X text 576 -528 number of;
#X text 576 -518 mushrooms;
#X msg 540 -559 3;
#X msg 617 -559 0.6;
#X floatatom 419 -446 5 0 0 0 - - -;
#X obj 510 -441 bng 15 250 50 0 empty empty empty 17 7 0 10 -262144
-1 -1;
#X obj 359 -474 expr $f1/($f2*1.0)*($f3*0.05+1);
#X obj 362 -189 sin~;
#X obj 363 -111 expr~ -$v1*$f2+1-$f2;
#X text 208 115 motion;
#X msg 185 -668 100;
#X msg 573 -559 -0.1;
#X obj 362 -231 clip~ 0.75 1;
#X obj 414 -202 expr~ ($v1-$f2)*99999;
#X obj 328 160 vsl 15 128 0 1 0 0 empty empty empty 0 -9 0 10 -262144
-1 -1 7325 1;
#X text 363 141 width;
#X text 306 141 cap size;
#X msg 572 -296 0.75;
#X text 495 -655 Jerobeam Fenderson / 2014;
#X text 338 -679 How To Draw Mushrooms On An Oscilloscope With Sound
;
#X text 520 -630 jerobeamfenderson.net;
#X connect 9 0 35 0;
#X connect 9 0 38 0;
#X connect 9 0 60 0;
#X connect 9 0 76 0;
#X connect 10 0 9 0;
#X connect 10 0 70 0;
#X connect 12 0 18 0;
#X connect 13 0 19 0;
#X connect 14 0 4 0;
#X connect 15 0 5 0;
#X connect 16 0 24 1;
#X connect 16 0 27 1;
#X connect 16 0 29 0;
#X connect 18 0 42 0;
#X connect 19 0 43 0;
#X connect 20 0 18 1;
#X connect 21 0 20 0;
#X connect 22 0 24 0;
#X connect 23 0 27 0;
#X connect 24 0 21 0;
#X connect 24 0 28 0;
#X connect 25 0 19 1;
#X connect 26 0 25 0;
#X connect 27 0 26 0;
#X connect 29 0 24 0;
#X connect 29 0 27 0;
#X connect 33 0 51 0;
#X connect 33 0 34 0;
#X connect 33 0 54 0;
#X connect 33 0 45 0;
#X connect 33 0 49 0;
#X connect 33 0 74 0;
#X connect 33 0 75 0;
#X connect 33 0 67 0;
#X connect 33 0 66 0;
#X connect 33 0 81 0;
#X connect 34 0 22 0;
#X connect 35 0 12 0;
#X connect 35 0 13 0;
#X connect 36 0 35 1;
#X connect 38 0 39 0;
#X connect 39 0 15 1;
#X connect 41 0 39 1;
#X connect 41 0 52 0;
#X connect 42 0 14 0;
#X connect 43 0 15 0;
#X connect 44 0 72 0;
#X connect 45 0 36 0;
#X connect 47 0 72 1;
#X connect 48 0 44 1;
#X connect 49 0 47 0;
#X connect 50 0 33 0;
#X connect 51 0 16 0;
#X connect 52 0 23 0;
#X connect 54 0 41 0;
#X connect 55 0 60 1;
#X connect 56 0 55 0;
#X connect 57 0 69 0;
#X connect 57 0 70 2;
#X connect 58 0 61 0;
#X connect 59 0 60 2;
#X connect 60 0 14 1;
#X connect 61 0 70 0;
#X connect 61 1 70 1;
#X connect 66 0 58 0;
#X connect 67 0 59 0;
#X connect 69 0 70 0;
#X connect 70 0 56 0;
#X connect 70 0 68 0;
#X connect 71 0 44 0;
#X connect 72 0 43 1;
#X connect 72 0 42 1;
#X connect 74 0 10 0;
#X connect 75 0 57 0;
#X connect 76 0 71 0;
#X connect 76 0 77 0;
#X connect 77 0 48 0;
#X connect 78 0 77 1;
#X connect 78 0 76 1;
#X connect 81 0 78 0;
#X coords 0 -1 1 1 400 200 1 100 100;
#X restore -78 641 pd shrooms;
#X obj 34 897 s~ osc1;
#X obj 101 896 s~ osc2;
#X text 170 593 Jerobeam Fenderson / 2014;
#X text 10 571 How To Draw Mushrooms On An Oscilloscope With Sound
;
#X text 195 614 jerobeamfenderson.net;
#X obj 37 996 r~ osc1;
#X obj 93 993 r ~osc2;
#X obj 37 1021 dac~;
#X connect 5 0 4 0;
#X connect 9 0 18 0;
#X connect 9 0 46 0;
#X connect 11 0 19 0;
#X connect 12 0 19 0;
#X connect 13 0 10 0;
#X connect 13 1 49 0;
#X connect 13 2 7 0;
#X connect 14 0 47 0;
#X connect 14 1 15 0;
#X connect 15 0 16 0;
#X connect 15 0 52 0;
#X connect 15 0 53 0;
#X connect 16 0 48 0;
#X connect 17 0 19 0;
#X connect 18 0 13 0;
#X connect 19 0 7 1;
#X connect 19 0 8 0;
#X connect 20 0 47 1;
#X connect 21 0 47 2;
#X connect 22 0 11 0;
#X connect 24 0 25 0;
#X connect 25 0 31 0;
#X connect 27 0 24 0;
#X connect 27 1 24 0;
#X connect 28 0 24 1;
#X connect 29 0 27 0;
#X connect 30 0 31 4;
#X connect 31 0 26 0;
#X connect 32 0 43 0;
#X connect 32 0 28 0;
#X connect 32 0 33 0;
#X connect 33 0 30 0;
#X connect 36 0 39 0;
#X connect 37 0 38 0;
#X connect 40 0 4 0;
#X connect 42 0 4 0;
#X connect 43 0 24 2;
#X connect 45 0 39 0;
#X connect 45 0 38 0;
#X connect 46 0 44 0;
#X connect 48 0 15 1;
#X connect 49 0 14 0;
#X connect 52 0 20 0;
#X connect 53 0 21 0;
#X connect 54 0 41 0;
#X connect 56 0 57 0;
#X connect 56 1 58 0;
#X connect 62 0 64 0;
#X connect 63 0 64 1;
